<?xml version="1.0" standalone="no"?>
<!DOCTYPE svg PUBLIC "-//W3C//DTD SVG 20010904//EN"
 "http://www.w3.org/TR/2001/REC-SVG-20010904/DTD/svg10.dtd">
<svg version="1.0" xmlns="http://www.w3.org/2000/svg"
 width="400.000000pt" height="400.000000pt" viewBox="0 0 400.000000 400.000000"
 preserveAspectRatio="xMidYMid meet">

<g transform="translate(0.000000,400.000000) scale(0.100000,-0.100000)"
fill="#000000" stroke="none">
<path d="M1202 3489 c-189 -28 -396 -152 -518 -310 -64 -83 -127 -211 -150
-305 -18 -75 -19 -120 -19 -879 l0 -800 23 -78 c68 -235 218 -418 427 -521
172 -85 114 -81 1040 -81 l820 0 79 23 c44 13 120 44 170 70 125 64 263 200
323 317 60 116 91 221 103 343 13 141 13 1381 0 1492 -36 296 -207 536 -470
659 -171 79 -112 75 -985 77 -435 1 -808 -2 -843 -7z m1858 -319 c47 -13 105
-75 119 -125 21 -76 -18 -158 -92 -194 -73 -35 -145 -23 -199 35 -84 90 -57
223 57 275 46 21 66 23 115 9z m-838 -361 c99 -27 219 -86 301 -149 135 -102
254 -283 298 -455 25 -95 30 -278 10 -370 -68 -317 -314 -571 -625 -645 -112
-27 -292 -27 -401 0 -260 66 -476 255 -576 506 -158 395 18 857 398 1048 98
49 180 74 298 90 61 8 226 -5 297 -25z"/>
<path d="M1881 2484 c-308 -83 -461 -428 -315 -715 53 -105 178 -210 292 -246
86 -26 239 -23 317 7 170 65 279 190 321 367 60 254 -105 521 -363 588 -71 19
-181 18 -252 -1z"/>
</g>
</svg>
